<mxfile host="65bd71144e">
    <diagram id="lqPcA_KB-Q_LWy9RgUP7" name="Page-1">
        <mxGraphModel dx="1562" dy="794" grid="1" gridSize="10" guides="1" tooltips="1" connect="1" arrows="1" fold="1" page="0" pageScale="1" pageWidth="827" pageHeight="1169" math="0" shadow="0">
            <root>
                <mxCell id="0"/>
                <mxCell id="1" parent="0"/>
                <mxCell id="2" value="Category" style="swimlane;fontStyle=0;childLayout=stackLayout;horizontal=1;startSize=30;fillColor=none;horizontalStack=0;resizeParent=1;resizeParentMax=0;resizeLast=0;collapsible=1;marginBottom=0;" parent="1" vertex="1">
                    <mxGeometry x="600" y="43" width="140" height="60" as="geometry"/>
                </mxCell>
                <mxCell id="6" value="Map" style="swimlane;fontStyle=0;childLayout=stackLayout;horizontal=1;startSize=26;fillColor=none;horizontalStack=0;resizeParent=1;resizeParentMax=0;resizeLast=0;collapsible=1;marginBottom=0;" parent="1" vertex="1">
                    <mxGeometry x="600" y="247" width="140" height="52" as="geometry"/>
                </mxCell>
                <mxCell id="8" value="Quest" style="swimlane;fontStyle=0;childLayout=stackLayout;horizontal=1;startSize=26;fillColor=none;horizontalStack=0;resizeParent=1;resizeParentMax=0;resizeLast=0;collapsible=1;marginBottom=0;" parent="1" vertex="1">
                    <mxGeometry x="600" y="528" width="140" height="52" as="geometry"/>
                </mxCell>
                <mxCell id="10" value="Input" style="swimlane;fontStyle=0;childLayout=stackLayout;horizontal=1;startSize=26;fillColor=none;horizontalStack=0;resizeParent=1;resizeParentMax=0;resizeLast=0;collapsible=1;marginBottom=0;" parent="1" vertex="1">
                    <mxGeometry x="180" y="230" width="140" height="52" as="geometry"/>
                </mxCell>
                <mxCell id="12" value="QuestAnswers" style="swimlane;fontStyle=0;childLayout=stackLayout;horizontal=1;startSize=26;fillColor=none;horizontalStack=0;resizeParent=1;resizeParentMax=0;resizeLast=0;collapsible=1;marginBottom=0;" parent="1" vertex="1">
                    <mxGeometry x="180" y="506" width="140" height="52" as="geometry"/>
                </mxCell>
                <mxCell id="16" value="Blurb" style="swimlane;fontStyle=0;childLayout=stackLayout;horizontal=1;startSize=40;fillColor=none;horizontalStack=0;resizeParent=1;resizeParentMax=0;resizeLast=0;collapsible=1;marginBottom=0;" parent="1" vertex="1">
                    <mxGeometry x="840" y="313" width="140" height="140" as="geometry"/>
                </mxCell>
                <mxCell id="17" value="image: img&#10;title: String&#10;spot: String&#10;description: String&#10;duration: Integer&#10;adress: String" style="text;strokeColor=none;fillColor=none;align=left;verticalAlign=top;spacingLeft=4;spacingRight=4;overflow=hidden;rotatable=0;points=[[0,0.5],[1,0.5]];portConstraint=eastwest;" parent="16" vertex="1">
                    <mxGeometry y="40" width="140" height="100" as="geometry"/>
                </mxCell>
                <mxCell id="18" value="Buttons" style="swimlane;fontStyle=0;childLayout=stackLayout;horizontal=1;startSize=40;fillColor=none;horizontalStack=0;resizeParent=1;resizeParentMax=0;resizeLast=0;collapsible=1;marginBottom=0;" parent="1" vertex="1">
                    <mxGeometry x="390" y="280" width="140" height="80" as="geometry"/>
                </mxCell>
                <mxCell id="19" value="type: String&#10;text: String" style="text;strokeColor=none;fillColor=none;align=left;verticalAlign=top;spacingLeft=4;spacingRight=4;overflow=hidden;rotatable=0;points=[[0,0.5],[1,0.5]];portConstraint=eastwest;" parent="18" vertex="1">
                    <mxGeometry y="40" width="140" height="40" as="geometry"/>
                </mxCell>
                <mxCell id="20" value="CategoryCard" style="swimlane;fontStyle=0;childLayout=stackLayout;horizontal=1;startSize=40;fillColor=none;horizontalStack=0;resizeParent=1;resizeParentMax=0;resizeLast=0;collapsible=1;marginBottom=0;" parent="1" vertex="1">
                    <mxGeometry x="840" width="140" height="66" as="geometry"/>
                </mxCell>
                <mxCell id="21" value="categories: Array" style="text;strokeColor=none;fillColor=none;align=left;verticalAlign=top;spacingLeft=4;spacingRight=4;overflow=hidden;rotatable=0;points=[[0,0.5],[1,0.5]];portConstraint=eastwest;" parent="20" vertex="1">
                    <mxGeometry y="40" width="140" height="26" as="geometry"/>
                </mxCell>
                <mxCell id="22" value="InputAudio" style="swimlane;fontStyle=0;childLayout=stackLayout;horizontal=1;startSize=40;fillColor=none;horizontalStack=0;resizeParent=1;resizeParentMax=0;resizeLast=0;collapsible=1;marginBottom=0;" parent="1" vertex="1">
                    <mxGeometry x="-60" y="178" width="140" height="66" as="geometry"/>
                </mxCell>
                <mxCell id="23" value="audio" style="text;strokeColor=none;fillColor=none;align=left;verticalAlign=top;spacingLeft=4;spacingRight=4;overflow=hidden;rotatable=0;points=[[0,0.5],[1,0.5]];portConstraint=eastwest;" parent="22" vertex="1">
                    <mxGeometry y="40" width="140" height="26" as="geometry"/>
                </mxCell>
                <mxCell id="24" value="InputImageCarousel" style="swimlane;fontStyle=0;childLayout=stackLayout;horizontal=1;startSize=38;fillColor=none;horizontalStack=0;resizeParent=1;resizeParentMax=0;resizeLast=0;collapsible=1;marginBottom=0;" parent="1" vertex="1">
                    <mxGeometry x="-60" y="100" width="140" height="64" as="geometry"/>
                </mxCell>
                <mxCell id="25" value="images: Array" style="text;strokeColor=none;fillColor=none;align=left;verticalAlign=top;spacingLeft=4;spacingRight=4;overflow=hidden;rotatable=0;points=[[0,0.5],[1,0.5]];portConstraint=eastwest;" parent="24" vertex="1">
                    <mxGeometry y="38" width="140" height="26" as="geometry"/>
                </mxCell>
                <mxCell id="26" value="InputTextCarousel" style="swimlane;fontStyle=0;childLayout=stackLayout;horizontal=1;startSize=38;fillColor=none;horizontalStack=0;resizeParent=1;resizeParentMax=0;resizeLast=0;collapsible=1;marginBottom=0;" parent="1" vertex="1">
                    <mxGeometry x="-60" y="258" width="140" height="80" as="geometry"/>
                </mxCell>
                <mxCell id="27" value="title: String&#10;text: Array" style="text;strokeColor=none;fillColor=none;align=left;verticalAlign=top;spacingLeft=4;spacingRight=4;overflow=hidden;rotatable=0;points=[[0,0.5],[1,0.5]];portConstraint=eastwest;" parent="26" vertex="1">
                    <mxGeometry y="38" width="140" height="42" as="geometry"/>
                </mxCell>
                <mxCell id="28" value="MapAPI" style="swimlane;fontStyle=0;childLayout=stackLayout;horizontal=1;startSize=40;fillColor=none;horizontalStack=0;resizeParent=1;resizeParentMax=0;resizeLast=0;collapsible=1;marginBottom=0;" parent="1" vertex="1">
                    <mxGeometry x="840" y="223" width="140" height="80" as="geometry"/>
                </mxCell>
                <mxCell id="29" value="latitude: String&#10;longitude: String" style="text;strokeColor=none;fillColor=none;align=left;verticalAlign=top;spacingLeft=4;spacingRight=4;overflow=hidden;rotatable=0;points=[[0,0.5],[1,0.5]];portConstraint=eastwest;" parent="28" vertex="1">
                    <mxGeometry y="40" width="140" height="40" as="geometry"/>
                </mxCell>
                <mxCell id="30" value="PreviewCard" style="swimlane;fontStyle=0;childLayout=stackLayout;horizontal=1;startSize=40;fillColor=none;horizontalStack=0;resizeParent=1;resizeParentMax=0;resizeLast=0;collapsible=1;marginBottom=0;" parent="1" vertex="1">
                    <mxGeometry x="840" y="103" width="140" height="110" as="geometry"/>
                </mxCell>
                <mxCell id="31" value="image: img&#10;title: String&#10;question: String&#10;adress: String&#10;" style="text;strokeColor=none;fillColor=none;align=left;verticalAlign=top;spacingLeft=4;spacingRight=4;overflow=hidden;rotatable=0;points=[[0,0.5],[1,0.5]];portConstraint=eastwest;" parent="30" vertex="1">
                    <mxGeometry y="40" width="140" height="70" as="geometry"/>
                </mxCell>
                <mxCell id="32" value="QuestAnswerCard" style="swimlane;fontStyle=0;childLayout=stackLayout;horizontal=1;startSize=40;fillColor=none;horizontalStack=0;resizeParent=1;resizeParentMax=0;resizeLast=0;collapsible=1;marginBottom=0;" parent="1" vertex="1">
                    <mxGeometry x="-60" y="540" width="140" height="80" as="geometry"/>
                </mxCell>
                <mxCell id="33" value="image: img&#10;answers: Array" style="text;strokeColor=none;fillColor=none;align=left;verticalAlign=top;spacingLeft=4;spacingRight=4;overflow=hidden;rotatable=0;points=[[0,0.5],[1,0.5]];portConstraint=eastwest;" parent="32" vertex="1">
                    <mxGeometry y="40" width="140" height="40" as="geometry"/>
                </mxCell>
                <mxCell id="34" value="QuestAnswerPreview" style="swimlane;fontStyle=0;childLayout=stackLayout;horizontal=1;startSize=40;fillColor=none;horizontalStack=0;resizeParent=1;resizeParentMax=0;resizeLast=0;collapsible=1;marginBottom=0;" parent="1" vertex="1">
                    <mxGeometry x="-60" y="350" width="140" height="66" as="geometry"/>
                </mxCell>
                <mxCell id="35" value="images: Array" style="text;strokeColor=none;fillColor=none;align=left;verticalAlign=top;spacingLeft=4;spacingRight=4;overflow=hidden;rotatable=0;points=[[0,0.5],[1,0.5]];portConstraint=eastwest;" parent="34" vertex="1">
                    <mxGeometry y="40" width="140" height="26" as="geometry"/>
                </mxCell>
                <mxCell id="38" value="QuestAnswerList" style="swimlane;fontStyle=0;childLayout=stackLayout;horizontal=1;startSize=42;fillColor=none;horizontalStack=0;resizeParent=1;resizeParentMax=0;resizeLast=0;collapsible=1;marginBottom=0;" parent="1" vertex="1">
                    <mxGeometry x="-60" y="458" width="140" height="68" as="geometry"/>
                </mxCell>
                <mxCell id="39" value="images: Array" style="text;strokeColor=none;fillColor=none;align=left;verticalAlign=top;spacingLeft=4;spacingRight=4;overflow=hidden;rotatable=0;points=[[0,0.5],[1,0.5]];portConstraint=eastwest;" parent="38" vertex="1">
                    <mxGeometry y="42" width="140" height="26" as="geometry"/>
                </mxCell>
                <mxCell id="40" value="QuestPhotoPreview" style="swimlane;fontStyle=0;childLayout=stackLayout;horizontal=1;startSize=40;fillColor=none;horizontalStack=0;resizeParent=1;resizeParentMax=0;resizeLast=0;collapsible=1;marginBottom=0;" parent="1" vertex="1">
                    <mxGeometry x="840" y="490" width="140" height="66" as="geometry"/>
                </mxCell>
                <mxCell id="41" value="image: img" style="text;strokeColor=none;fillColor=none;align=left;verticalAlign=top;spacingLeft=4;spacingRight=4;overflow=hidden;rotatable=0;points=[[0,0.5],[1,0.5]];portConstraint=eastwest;" parent="40" vertex="1">
                    <mxGeometry y="40" width="140" height="26" as="geometry"/>
                </mxCell>
                <mxCell id="42" value="QuestTextBox" style="swimlane;fontStyle=0;childLayout=stackLayout;horizontal=1;startSize=38;fillColor=none;horizontalStack=0;resizeParent=1;resizeParentMax=0;resizeLast=0;collapsible=1;marginBottom=0;" parent="1" vertex="1">
                    <mxGeometry x="840" y="566" width="140" height="64" as="geometry"/>
                </mxCell>
                <mxCell id="43" value="input: Array" style="text;strokeColor=none;fillColor=none;align=left;verticalAlign=top;spacingLeft=4;spacingRight=4;overflow=hidden;rotatable=0;points=[[0,0.5],[1,0.5]];portConstraint=eastwest;" parent="42" vertex="1">
                    <mxGeometry y="38" width="140" height="26" as="geometry"/>
                </mxCell>
                <mxCell id="44" value="QuestTextBoxInput" style="swimlane;fontStyle=0;childLayout=stackLayout;horizontal=1;startSize=40;fillColor=none;horizontalStack=0;resizeParent=1;resizeParentMax=0;resizeLast=0;collapsible=1;marginBottom=0;" parent="1" vertex="1">
                    <mxGeometry x="840" y="640" width="140" height="66" as="geometry"/>
                </mxCell>
                <mxCell id="45" value="input: Array" style="text;strokeColor=none;fillColor=none;align=left;verticalAlign=top;spacingLeft=4;spacingRight=4;overflow=hidden;rotatable=0;points=[[0,0.5],[1,0.5]];portConstraint=eastwest;" parent="44" vertex="1">
                    <mxGeometry y="40" width="140" height="26" as="geometry"/>
                </mxCell>
                <mxCell id="46" value="" style="endArrow=diamondThin;endFill=1;endSize=24;html=1;exitX=0.997;exitY=0.467;exitDx=0;exitDy=0;entryX=-0.008;entryY=0.127;entryDx=0;entryDy=0;exitPerimeter=0;entryPerimeter=0;" parent="1" source="24" edge="1">
                    <mxGeometry width="160" relative="1" as="geometry">
                        <mxPoint x="500" y="310" as="sourcePoint"/>
                        <mxPoint x="178.8800000000001" y="259.30200000000013" as="targetPoint"/>
                        <Array as="points">
                            <mxPoint x="140" y="130"/>
                            <mxPoint x="140" y="260"/>
                        </Array>
                    </mxGeometry>
                </mxCell>
                <mxCell id="47" value="" style="endArrow=diamondThin;endFill=1;endSize=24;html=1;exitX=1;exitY=0.5;exitDx=0;exitDy=0;entryX=-0.008;entryY=0.127;entryDx=0;entryDy=0;entryPerimeter=0;" parent="1" source="22" edge="1">
                    <mxGeometry width="160" relative="1" as="geometry">
                        <mxPoint x="79.99999999999993" y="129.88800000000003" as="sourcePoint"/>
                        <mxPoint x="179.3000000000001" y="259.30200000000013" as="targetPoint"/>
                        <Array as="points">
                            <mxPoint x="140" y="211"/>
                            <mxPoint x="140.42" y="260"/>
                        </Array>
                    </mxGeometry>
                </mxCell>
                <mxCell id="48" value="" style="endArrow=diamondThin;endFill=1;endSize=24;html=1;exitX=1;exitY=0.5;exitDx=0;exitDy=0;entryX=-0.008;entryY=0.127;entryDx=0;entryDy=0;entryPerimeter=0;" parent="1" source="26" edge="1">
                    <mxGeometry width="160" relative="1" as="geometry">
                        <mxPoint x="80" y="211.0000000000001" as="sourcePoint"/>
                        <mxPoint x="179.30000000000018" y="259.30200000000013" as="targetPoint"/>
                        <Array as="points">
                            <mxPoint x="140" y="298"/>
                            <mxPoint x="140.42" y="260"/>
                        </Array>
                    </mxGeometry>
                </mxCell>
                <mxCell id="49" value="" style="endArrow=diamondThin;endFill=1;endSize=24;html=1;exitX=1;exitY=0.5;exitDx=0;exitDy=0;entryX=-0.008;entryY=0.127;entryDx=0;entryDy=0;entryPerimeter=0;" parent="1" source="34" edge="1">
                    <mxGeometry width="160" relative="1" as="geometry">
                        <mxPoint x="80" y="292.6999999999999" as="sourcePoint"/>
                        <mxPoint x="179.30000000000018" y="260.0020000000001" as="targetPoint"/>
                        <Array as="points">
                            <mxPoint x="140" y="383"/>
                            <mxPoint x="140.42" y="260.7"/>
                        </Array>
                    </mxGeometry>
                </mxCell>
                <mxCell id="52" value="" style="endArrow=diamondThin;endFill=1;endSize=24;html=1;exitX=1;exitY=0.5;exitDx=0;exitDy=0;" parent="1" source="38" edge="1">
                    <mxGeometry width="160" relative="1" as="geometry">
                        <mxPoint x="80.7" y="640.9999999999998" as="sourcePoint"/>
                        <mxPoint x="180" y="530" as="targetPoint"/>
                        <Array as="points">
                            <mxPoint x="141" y="492"/>
                            <mxPoint x="141.11999999999998" y="530.7"/>
                        </Array>
                    </mxGeometry>
                </mxCell>
                <mxCell id="53" value="" style="endArrow=diamondThin;endFill=1;endSize=24;html=1;exitX=1;exitY=0.5;exitDx=0;exitDy=0;" parent="1" source="32" edge="1">
                    <mxGeometry width="160" relative="1" as="geometry">
                        <mxPoint x="80" y="491.9999999999999" as="sourcePoint"/>
                        <mxPoint x="180" y="530" as="targetPoint"/>
                        <Array as="points">
                            <mxPoint x="141" y="580"/>
                            <mxPoint x="141.11999999999998" y="530.7"/>
                        </Array>
                    </mxGeometry>
                </mxCell>
                <mxCell id="54" value="" style="endArrow=diamondThin;endFill=1;endSize=24;html=1;entryX=1;entryY=0.5;entryDx=0;entryDy=0;exitX=0;exitY=0.5;exitDx=0;exitDy=0;" parent="1" source="20" target="2" edge="1">
                    <mxGeometry width="160" relative="1" as="geometry">
                        <mxPoint x="570" y="350" as="sourcePoint"/>
                        <mxPoint x="730" y="350" as="targetPoint"/>
                        <Array as="points">
                            <mxPoint x="810" y="33"/>
                            <mxPoint x="790" y="73"/>
                        </Array>
                    </mxGeometry>
                </mxCell>
                <mxCell id="55" value="" style="endArrow=diamondThin;endFill=1;endSize=24;html=1;entryX=1;entryY=0.5;entryDx=0;entryDy=0;exitX=0;exitY=0.5;exitDx=0;exitDy=0;" parent="1" source="28" target="6" edge="1">
                    <mxGeometry width="160" relative="1" as="geometry">
                        <mxPoint x="850" y="83" as="sourcePoint"/>
                        <mxPoint x="750" y="83" as="targetPoint"/>
                        <Array as="points">
                            <mxPoint x="820" y="263"/>
                            <mxPoint x="800" y="273"/>
                        </Array>
                    </mxGeometry>
                </mxCell>
                <mxCell id="56" value="" style="endArrow=diamondThin;endFill=1;endSize=24;html=1;entryX=1;entryY=0.5;entryDx=0;entryDy=0;exitX=0;exitY=0.5;exitDx=0;exitDy=0;" parent="1" source="30" edge="1">
                    <mxGeometry width="160" relative="1" as="geometry">
                        <mxPoint x="840" y="272.72" as="sourcePoint"/>
                        <mxPoint x="740" y="272.72" as="targetPoint"/>
                        <Array as="points">
                            <mxPoint x="780" y="158"/>
                            <mxPoint x="780" y="273"/>
                        </Array>
                    </mxGeometry>
                </mxCell>
                <mxCell id="57" value="" style="endArrow=diamondThin;endFill=1;endSize=24;html=1;entryX=1;entryY=0.5;entryDx=0;entryDy=0;exitX=0;exitY=0.25;exitDx=0;exitDy=0;" parent="1" source="16" edge="1">
                    <mxGeometry width="160" relative="1" as="geometry">
                        <mxPoint x="840" y="193" as="sourcePoint"/>
                        <mxPoint x="740" y="272.72" as="targetPoint"/>
                        <Array as="points">
                            <mxPoint x="780" y="348"/>
                            <mxPoint x="780" y="273"/>
                        </Array>
                    </mxGeometry>
                </mxCell>
                <mxCell id="58" value="" style="endArrow=diamondThin;endFill=1;endSize=24;html=1;entryX=0.993;entryY=0.404;entryDx=0;entryDy=0;entryPerimeter=0;exitX=0;exitY=0.5;exitDx=0;exitDy=0;" parent="1" source="42" target="8" edge="1">
                    <mxGeometry width="160" relative="1" as="geometry">
                        <mxPoint x="840" y="549" as="sourcePoint"/>
                        <mxPoint x="820" y="400" as="targetPoint"/>
                        <Array as="points">
                            <mxPoint x="780" y="598"/>
                            <mxPoint x="780" y="549"/>
                        </Array>
                    </mxGeometry>
                </mxCell>
                <mxCell id="59" value="" style="endArrow=diamondThin;endFill=1;endSize=24;html=1;entryX=0.993;entryY=0.404;entryDx=0;entryDy=0;entryPerimeter=0;exitX=0;exitY=0.5;exitDx=0;exitDy=0;" parent="1" source="40" edge="1">
                    <mxGeometry width="160" relative="1" as="geometry">
                        <mxPoint x="840" y="549" as="sourcePoint"/>
                        <mxPoint x="739.02" y="549.008" as="targetPoint"/>
                        <Array as="points">
                            <mxPoint x="780" y="523"/>
                            <mxPoint x="780" y="549"/>
                        </Array>
                    </mxGeometry>
                </mxCell>
                <mxCell id="60" value="" style="endArrow=diamondThin;endFill=1;endSize=24;html=1;entryX=0.993;entryY=0.404;entryDx=0;entryDy=0;entryPerimeter=0;exitX=0;exitY=0.5;exitDx=0;exitDy=0;" parent="1" source="44" edge="1">
                    <mxGeometry width="160" relative="1" as="geometry">
                        <mxPoint x="840" y="473" as="sourcePoint"/>
                        <mxPoint x="739.02" y="549.008" as="targetPoint"/>
                        <Array as="points">
                            <mxPoint x="780" y="673"/>
                            <mxPoint x="780" y="549"/>
                        </Array>
                    </mxGeometry>
                </mxCell>
                <mxCell id="68" value="" style="endArrow=diamondThin;endFill=0;endSize=24;html=1;shadow=1;exitX=0.25;exitY=0;exitDx=0;exitDy=0;entryX=1;entryY=0.5;entryDx=0;entryDy=0;" parent="1" source="18" target="10" edge="1">
                    <mxGeometry width="160" relative="1" as="geometry">
                        <mxPoint x="560" y="380" as="sourcePoint"/>
                        <mxPoint x="720" y="380" as="targetPoint"/>
                        <Array as="points">
                            <mxPoint x="425" y="256"/>
                        </Array>
                    </mxGeometry>
                </mxCell>
                <mxCell id="70" value="" style="endArrow=diamondThin;endFill=0;endSize=24;html=1;shadow=1;entryX=1;entryY=0.5;entryDx=0;entryDy=0;" parent="1" target="12" edge="1">
                    <mxGeometry width="160" relative="1" as="geometry">
                        <mxPoint x="420" y="360" as="sourcePoint"/>
                        <mxPoint x="720" y="380" as="targetPoint"/>
                        <Array as="points">
                            <mxPoint x="420" y="532"/>
                        </Array>
                    </mxGeometry>
                </mxCell>
                <mxCell id="71" value="" style="endArrow=diamondThin;endFill=0;endSize=24;html=1;shadow=1;exitX=0.783;exitY=1.07;exitDx=0;exitDy=0;exitPerimeter=0;entryX=0;entryY=0.5;entryDx=0;entryDy=0;" parent="1" source="19" target="8" edge="1">
                    <mxGeometry width="160" relative="1" as="geometry">
                        <mxPoint x="560" y="380" as="sourcePoint"/>
                        <mxPoint x="720" y="380" as="targetPoint"/>
                        <Array as="points">
                            <mxPoint x="500" y="554"/>
                        </Array>
                    </mxGeometry>
                </mxCell>
                <mxCell id="72" value="" style="endArrow=diamondThin;endFill=0;endSize=24;html=1;shadow=1;exitX=1;exitY=0.5;exitDx=0;exitDy=0;entryX=0;entryY=0.5;entryDx=0;entryDy=0;" parent="1" source="19" target="17" edge="1">
                    <mxGeometry width="160" relative="1" as="geometry">
                        <mxPoint x="610" y="380" as="sourcePoint"/>
                        <mxPoint x="770" y="380" as="targetPoint"/>
                        <Array as="points">
                            <mxPoint x="650" y="340"/>
                            <mxPoint x="650" y="400"/>
                        </Array>
                    </mxGeometry>
                </mxCell>
            </root>
        </mxGraphModel>
    </diagram>
</mxfile>